<?xml version="1.0" encoding="utf-8"?>
<!-- Generator: Adobe Illustrator 22.0.1, SVG Export Plug-In . SVG Version: 6.00 Build 0)  -->
<svg version="1.1" id="Capa_1" xmlns="http://www.w3.org/2000/svg" xmlns:xlink="http://www.w3.org/1999/xlink" x="0px" y="0px"
	 viewBox="0 0 511 511" style="enable-background:new 0 0 511 511;" xml:space="preserve">
<style type="text/css">
	.st0{fill:#0E216F;}
	.st1{fill:#044B31;}
</style>
<path class="st0" d="M461.9,441.1L356.1,335.3l-21.3,21.3l106,105.7L461.9,441.1z"/>
<path class="st0" d="M48.9,71.4l105.9,105.9l21.2-21.2L70.1,50.3L48.9,71.4z"/>
<path class="st0" d="M419.5,483.6L313.7,377.7l-21.1,21.1C230.2,364.2,147,282,112.4,219.7l21.2-21.2L27.8,92.5l-0.4,0.4
	C0.9,119.4-6.5,159.8,9,193.3c40.8,88.3,154.4,239.4,311.2,310.2c33.8,15.3,73.1,6.2,98.5-19.2L419.5,483.6z"/>
<path class="st0" d="M177.7,56.9l21.2,21.2c64.2-64.2,170.7-64.2,234.9,0s64.2,169.7,0,233.9l21.2,21.2
	c75.9-75.9,75.9-200.4,0-276.2C379.1-19,253.6-19,177.7,56.9z"/>
<path class="st0" d="M268.9,180.6l-6.3,3.2c-21.6,10.8-35.1,32.5-35.1,56.7v15h89.8v-29.9h-56.4c3.2-6.4,8.4-11.7,15-15l6.3-3.2
	c21.6-10.8,35.1-32.5,35.1-56.7c0-24.8-20.1-44.9-44.9-44.9c-24.8,0-44.9,20.1-44.9,44.9v15h29.9v-15c0-8.3,6.7-15,15-15
	c8.3,0,15,6.7,15,15C287.4,163.5,280.3,174.9,268.9,180.6z"/>
<path class="st0" d="M347.3,105.8v89.8h59.9v59.9h29.9V105.8h-29.9v59.9h-29.9v-59.9H347.3z"/>
<line class="st1" x1="2" y1="595.4" x2="208.2" y2="595.4"/>
<line class="st0" x1="303.8" y1="595.4" x2="510" y2="595.4"/>
</svg>
